<?xml version="1.0" standalone="no"?>
<!DOCTYPE svg PUBLIC "-//W3C//DTD SVG 1.0//EN" "http://www.w3.org/TR/2001/REC-SVG-20010904/DTD/svg10.dtd">
<svg xmlns="http://www.w3.org/2000/svg" xmlns:xlink="http://www.w3.org/1999/xlink" id="body_1" width="100" height="100">

<g transform="matrix(0.2666667 0 0 0.2666667 0 0)">
	<g>
		<g transform="matrix(1 0 0 1 11.215819 230.62498)">
			<g>
                <path d="M33.65625 1.125L43.539062 1.375L46.04297 1.125L48.54297 0.5L51.046875 0.125L53.55078 -0.875L55.80078 -1.125L58.179688 -2.253906L66.6875 -7.382812L70.31641 -11.136719L71.56641 -12.886719L72.94141 -15.640625L73.69141 -17.890625L74.44531 -20.019531L75.19531 -26.273438L74.94531 -30.277344L73.06641 -37.535156L71.69141 -39.535156L68.4375 -43.289062L66.1875 -45.29297L64.18359 -46.29297L61.933594 -47.66797L52.171875 -50.671875L49.671875 -51.046875L47.16797 -51.171875L44.539062 -51.671875L40.914062 -51.671875L34.28125 -53.046875L29.652344 -55.30078L27.777344 -57.05078L27.273438 -60.804688L27.902344 -64.18359L29.402344 -65.80859L31.277344 -67.1875L33.28125 -68.3125L35.53125 -68.8125L39.535156 -68.9375L43.539062 -68.4375L45.79297 -67.8125L48.04297 -66.3125L50.171875 -64.55859L52.046875 -62.058594L54.80078 -60.429688L60.679688 -60.929688L64.05859 -60.679688L66.5625 -60.679688L68.8125 -60.429688L71.19141 -62.183594L72.19141 -64.30859L71.69141 -66.6875L71.44141 -69.0625L67.9375 -75.57031L65.18359 -79.32422L56.92578 -85.078125L49.921875 -87.45703L45.04297 -88.45703L35.40625 -88.70703L32.65625 -87.95703L30.152344 -87.83203L27.902344 -87.45703L23.144531 -85.953125L18.890625 -83.453125L12.886719 -79.32422L8.507812 -73.44141L6.253906 -66.5625L5.878906 -60.429688L6.003906 -56.55078L6.882812 -51.546875L8.882812 -47.16797L13.511719 -41.414062L22.019531 -36.785156L26.523438 -35.28125L46.16797 -33.03125L50.671875 -30.902344L52.296875 -29.402344L53.046875 -26.273438L52.046875 -23.144531L50.421875 -21.269531L46.16797 -19.394531L42.289062 -19.144531L40.035156 -18.765625L33.65625 -19.394531L31.527344 -20.519531L29.402344 -21.894531L25.273438 -26.398438L22.769531 -27.398438L20.519531 -27.148438L18.140625 -27.523438L8.507812 -27.023438L6.253906 -26.023438L5.253906 -23.398438L5.628906 -20.894531L6.128906 -18.390625L6.882812 -16.140625L9.257812 -11.511719L11.011719 -9.882812L12.636719 -8.007812L17.015625 -5.253906L18.765625 -3.378906L21.144531 -2.253906L23.648438 -1.5L28.527344 0.25L33.65625 1.125z" stroke="none" fill="#160080" fill-rule="nonzero" />
			</g>
		</g>
	</g>
	<g>
		<g transform="matrix(1 0 0 1 98.04003 230.62498)">
			<g>
                <path d="M32.65625 0.25L41.039062 0L44.66797 -1.25L45.91797 -4.753906L46.29297 -11.261719L45.91797 -16.015625L46.16797 -18.640625L46.04297 -23.648438L46.29297 -25.898438L45.91797 -28.652344L46.16797 -48.79297L45.79297 -51.421875L46.16797 -62.308594L47.16797 -66.0625L49.546875 -67.5625L54.42578 -67.8125L59.054688 -67.1875L61.683594 -67.5625L63.933594 -67.4375L66.0625 -68.8125L67.5625 -71.56641L67.6875 -83.453125L66.3125 -85.953125L63.933594 -87.58203L56.17578 -87.58203L53.80078 -87.83203L51.171875 -87.45703L48.79297 -87.70703L38.660156 -87.20703L36.160156 -87.70703L33.78125 -87.83203L31.152344 -87.45703L28.402344 -87.70703L26.148438 -87.20703L18.765625 -87.58203L14.890625 -87.20703L6.128906 -87.70703L3.753906 -86.453125L2.253906 -83.578125L2.378906 -81.07422L2.128906 -74.82031L2.378906 -70.94141L3.503906 -68.6875L5.753906 -67.4375L8.257812 -67.6875L20.144531 -67.4375L22.519531 -66.1875L23.898438 -63.683594L23.648438 -59.679688L23.898438 -56.17578L23.773438 -53.42578L23.898438 -50.921875L23.648438 -47.41797L24.023438 -28.777344L23.773438 -26.273438L23.648438 -16.140625L23.898438 -13.511719L23.773438 -6.253906L23.523438 -3.878906L25.148438 -1.125L28.777344 0.125L32.65625 0.25z" stroke="none" fill="#F6CD26" fill-rule="nonzero" />
			</g>
		</g>
	</g>
	<g>
		<g transform="matrix(1 0 0 1 174.98286 230.62498)">
			<g>
                <path d="M73.81641 0.25L78.57031 -0.125L80.94922 0.125L84.828125 0L88.33203 -0.625L88.70703 -3.628906L87.83203 -6.507812L85.953125 -11.136719L82.57422 -17.640625L80.82422 -22.269531L78.32031 -26.773438L73.56641 -38.160156L72.31641 -40.035156L71.06641 -42.414062L70.31641 -45.16797L69.1875 -47.04297L68.4375 -49.046875L65.80859 -53.67578L64.93359 -56.30078L56.67578 -73.69141L55.92578 -76.19531L54.55078 -78.44531L53.80078 -80.69922L51.421875 -85.078125L49.296875 -87.33203L45.16797 -88.58203L41.164062 -87.20703L38.910156 -85.078125L37.785156 -82.953125L36.910156 -80.44922L35.78125 -78.69922L30.777344 -67.1875L29.402344 -65.30859L28.777344 -62.808594L27.398438 -60.429688L26.648438 -58.179688L13.886719 -31.402344L13.136719 -28.652344L11.886719 -26.773438L11.011719 -24.273438L8.757812 -20.269531L6.882812 -15.265625L5.503906 -13.511719L4.878906 -11.261719L2.378906 -6.253906L1.625 -3.753906L2.253906 -0.625L4.753906 0.125L9.632812 -0.125L12.136719 0.125L19.144531 -0.125L22.019531 -1L24.398438 -3.253906L26.648438 -7.382812L29.027344 -9.757812L31.652344 -11.136719L34.03125 -10.761719L39.285156 -11.261719L41.539062 -10.886719L53.80078 -11.011719L56.05078 -10.761719L58.804688 -11.136719L61.554688 -9.757812L63.933594 -7.757812L65.05859 -5.378906L65.80859 -3.128906L68.3125 -1.25L71.19141 0L73.81641 0.25zM45.41797 -30.902344L42.914062 -31.402344L40.035156 -31.152344L38.035156 -32.03125L37.910156 -34.40625L43.789062 -47.91797L45.16797 -49.046875L46.91797 -48.04297L52.796875 -34.28125L52.296875 -32.03125L50.421875 -31.027344z" stroke="none" fill="#F6CD26" fill-rule="nonzero" />
			</g>
		</g>
	</g>
	<g>
		<g transform="matrix(1 0 0 1 272.81345 230.62498)">
			<g>
                <path d="M38.535156 0.375L42.289062 0.375L46.16797 -0.125L48.66797 -0.125L52.296875 -1.25L57.429688 -2.128906L63.308594 -4.628906L71.69141 -10.257812L77.82031 -18.140625L79.07422 -20.644531L80.57422 -22.644531L82.57422 -27.523438L83.203125 -29.902344L83.703125 -32.53125L84.453125 -34.65625L84.828125 -37.160156L84.828125 -39.785156L85.203125 -43.789062L85.078125 -47.41797L83.328125 -57.30078L81.69922 -62.058594L80.69922 -64.43359L76.44531 -71.06641L69.8125 -78.44531L63.433594 -82.69922L61.054688 -84.078125L58.554688 -84.578125L56.42578 -85.578125L53.80078 -86.203125L46.41797 -87.33203L17.890625 -87.58203L15.640625 -87.20703L13.136719 -87.33203L10.382812 -86.203125L9.257812 -83.578125L9.132812 -13.636719L9.382812 -11.261719L9.382812 -4.878906L10.636719 -1L13.136719 0.25L15.640625 0L30.902344 0.25L33.40625 -0.125L38.535156 0.375zM38.160156 -20.144531L35.78125 -20.394531L32.90625 -21.769531L31.90625 -24.148438L31.777344 -26.273438L31.90625 -31.402344L31.402344 -37.535156L31.90625 -43.789062L31.652344 -61.054688L31.90625 -63.183594L33.15625 -66.0625L37.160156 -66.9375L42.414062 -67.0625L46.04297 -66.6875L50.921875 -65.30859L53.17578 -64.18359L55.05078 -62.808594L56.92578 -61.054688L58.804688 -58.804688L60.054688 -56.67578L61.179688 -54.42578L63.183594 -43.414062L61.933594 -34.65625L59.804688 -30.027344L55.17578 -24.773438L50.921875 -22.019531L47.29297 -20.894531L41.914062 -20.269531z" stroke="none" fill="#160080" fill-rule="nonzero" />
			</g>
		</g>
	</g>
    <path d="M88.19531 166.1875L279.2539 166.1875L279.2539 222.1875L88.19531 222.1875L88.19531 166.1875" stroke="none" fill="#FFFFFF" fill-rule="nonzero" />
	<g>
		<g transform="matrix(1 0 0 1 107.02719 206.18556)">
			<g>
                <path d="M7.347656 -8.503906L11.023438 -8.503906C 14.871094 -8.503906 18.300781 -11.339844 18.300781 -16.167969C 18.300781 -20.683594 14.871094 -23.796875 11.023438 -23.796875L11.023438 -23.796875L2.101562 -23.796875L2.101562 0L7.347656 0L7.347656 -8.503906zM10.148438 -19.667969C 11.6875 -19.667969 13.296875 -18.335938 13.296875 -16.167969C 13.296875 -13.894531 11.6875 -12.632812 10.148438 -12.632812L10.148438 -12.632812L7.347656 -12.632812L7.347656 -19.667969z" stroke="none" fill="#FF3131" fill-rule="nonzero" />
			</g>
		</g>
	</g>
	<g>
		<g transform="matrix(1 0 0 1 135.47795 206.18556)">
			<g>
                <path d="M15.1875 -23.796875L15.1875 -14.3125L7.347656 -14.3125L7.347656 -23.796875L2.101562 -23.796875L2.101562 0L7.347656 0L7.347656 -9.554688L15.1875 -9.554688L15.1875 0L20.785156 0L20.785156 -23.796875L15.1875 -23.796875z" stroke="none" fill="#FF3131" fill-rule="nonzero" />
			</g>
		</g>
	</g>
	<g>
		<g transform="matrix(1 0 0 1 167.98778 206.18556)">
			<g>
                <path d="M20.472656 -11.933594C 20.472656 -8.257812 17.148438 -4.898438 13.472656 -4.898438C 9.796875 -4.898438 6.472656 -8.257812 6.472656 -11.933594C 6.472656 -15.609375 9.796875 -18.933594 13.472656 -18.933594C 17.148438 -18.933594 20.472656 -15.609375 20.472656 -11.933594zM25.722656 -11.898438C 25.722656 -18.476562 20.050781 -24.148438 13.472656 -24.148438C 6.894531 -24.148438 1.226562 -18.476562 1.226562 -11.898438C 1.226562 -5.320312 6.894531 0.351562 13.472656 0.351562C 20.050781 0.351562 25.722656 -5.320312 25.722656 -11.898438z" stroke="none" fill="#FF3131" fill-rule="nonzero" />
			</g>
		</g>
	</g>
	<g>
		<g transform="matrix(1 0 0 1 204.5567 206.18556)">
			<g>
                <path d="M12.214844 -19.039062L19.003906 -19.039062L19.003906 -23.796875L0.175781 -23.796875L0.175781 -19.039062L6.964844 -19.039062L6.964844 0L12.214844 0L12.214844 -19.039062z" stroke="none" fill="#FF3131" fill-rule="nonzero" />
			</g>
		</g>
	</g>
	<g>
		<g transform="matrix(1 0 0 1 233.35738 206.18556)">
			<g>
                <path d="M20.472656 -11.933594C 20.472656 -8.257812 17.148438 -4.898438 13.472656 -4.898438C 9.796875 -4.898438 6.472656 -8.257812 6.472656 -11.933594C 6.472656 -15.609375 9.796875 -18.933594 13.472656 -18.933594C 17.148438 -18.933594 20.472656 -15.609375 20.472656 -11.933594zM25.722656 -11.898438C 25.722656 -18.476562 20.050781 -24.148438 13.472656 -24.148438C 6.894531 -24.148438 1.226562 -18.476562 1.226562 -11.898438C 1.226562 -5.320312 6.894531 0.351562 13.472656 0.351562C 20.050781 0.351562 25.722656 -5.320312 25.722656 -11.898438z" stroke="none" fill="#FF3131" fill-rule="nonzero" />
			</g>
		</g>
	</g>
</g>
</svg>