<svg xmlns="http://www.w3.org/2000/svg" xmlns:xlink="http://www.w3.org/1999/xlink" width="1000" zoomAndPan="magnify" viewBox="0 0 375 374.999991" height="1000" preserveAspectRatio="xMidYMid meet" version="1.0"><defs><g/></defs><g fill="#160080" fill-opacity="1"><g transform="translate(11.215819, 230.624985)"><g><path d="M 33.65625 1.125 L 43.539062 1.375 L 46.042969 1.125 L 48.542969 0.5 L 51.046875 0.125 L 53.550781 -0.875 L 55.800781 -1.125 L 58.179688 -2.253906 L 66.6875 -7.382812 L 70.316406 -11.136719 L 71.566406 -12.886719 L 72.941406 -15.640625 L 73.691406 -17.890625 L 74.445312 -20.019531 L 75.195312 -26.273438 L 74.945312 -30.277344 L 73.066406 -37.535156 L 71.691406 -39.535156 L 68.4375 -43.289062 L 66.1875 -45.292969 L 64.183594 -46.292969 L 61.933594 -47.667969 L 52.171875 -50.671875 L 49.671875 -51.046875 L 47.167969 -51.171875 L 44.539062 -51.671875 L 40.914062 -51.671875 L 34.28125 -53.046875 L 29.652344 -55.300781 L 27.777344 -57.050781 L 27.273438 -60.804688 L 27.902344 -64.183594 L 29.402344 -65.808594 L 31.277344 -67.1875 L 33.28125 -68.3125 L 35.53125 -68.8125 L 39.535156 -68.9375 L 43.539062 -68.4375 L 45.792969 -67.8125 L 48.042969 -66.3125 L 50.171875 -64.558594 L 52.046875 -62.058594 L 54.800781 -60.429688 L 60.679688 -60.929688 L 64.058594 -60.679688 L 66.5625 -60.679688 L 68.8125 -60.429688 L 71.191406 -62.183594 L 72.191406 -64.308594 L 71.691406 -66.6875 L 71.441406 -69.0625 L 67.9375 -75.570312 L 65.183594 -79.324219 L 56.925781 -85.078125 L 49.921875 -87.457031 L 45.042969 -88.457031 L 35.40625 -88.707031 L 32.65625 -87.957031 L 30.152344 -87.832031 L 27.902344 -87.457031 L 23.144531 -85.953125 L 18.890625 -83.453125 L 12.886719 -79.324219 L 8.507812 -73.441406 L 6.253906 -66.5625 L 5.878906 -60.429688 L 6.003906 -56.550781 L 6.882812 -51.546875 L 8.882812 -47.167969 L 13.511719 -41.414062 L 22.019531 -36.785156 L 26.523438 -35.28125 L 46.167969 -33.03125 L 50.671875 -30.902344 L 52.296875 -29.402344 L 53.046875 -26.273438 L 52.046875 -23.144531 L 50.421875 -21.269531 L 46.167969 -19.394531 L 42.289062 -19.144531 L 40.035156 -18.765625 L 33.65625 -19.394531 L 31.527344 -20.519531 L 29.402344 -21.894531 L 25.273438 -26.398438 L 22.769531 -27.398438 L 20.519531 -27.148438 L 18.140625 -27.523438 L 8.507812 -27.023438 L 6.253906 -26.023438 L 5.253906 -23.398438 L 5.628906 -20.894531 L 6.128906 -18.390625 L 6.882812 -16.140625 L 9.257812 -11.511719 L 11.011719 -9.882812 L 12.636719 -8.007812 L 17.015625 -5.253906 L 18.765625 -3.378906 L 21.144531 -2.253906 L 23.648438 -1.5 L 28.527344 0.25 Z M 33.65625 1.125 "/></g></g></g><g fill="#f6cd26" fill-opacity="1"><g transform="translate(98.040032, 230.624985)"><g><path d="M 32.65625 0.25 L 41.039062 0 L 44.667969 -1.25 L 45.917969 -4.753906 L 46.292969 -11.261719 L 45.917969 -16.015625 L 46.167969 -18.640625 L 46.042969 -23.648438 L 46.292969 -25.898438 L 45.917969 -28.652344 L 46.167969 -48.792969 L 45.792969 -51.421875 L 46.167969 -62.308594 L 47.167969 -66.0625 L 49.546875 -67.5625 L 54.425781 -67.8125 L 59.054688 -67.1875 L 61.683594 -67.5625 L 63.933594 -67.4375 L 66.0625 -68.8125 L 67.5625 -71.566406 L 67.6875 -83.453125 L 66.3125 -85.953125 L 63.933594 -87.582031 L 56.175781 -87.582031 L 53.800781 -87.832031 L 51.171875 -87.457031 L 48.792969 -87.707031 L 38.660156 -87.207031 L 36.160156 -87.707031 L 33.78125 -87.832031 L 31.152344 -87.457031 L 28.402344 -87.707031 L 26.148438 -87.207031 L 18.765625 -87.582031 L 14.890625 -87.207031 L 6.128906 -87.707031 L 3.753906 -86.453125 L 2.253906 -83.578125 L 2.378906 -81.074219 L 2.100000 -74.820312 L 2.378906 -70.941406 L 3.503906 -68.6875 L 5.753906 -67.4375 L 8.257812 -67.6875 L 20.144531 -67.4375 L 22.519531 -66.1875 L 23.898438 -63.683594 L 23.648438 -59.679688 L 23.898438 -56.175781 L 23.773438 -53.425781 L 23.898438 -50.921875 L 23.648438 -47.417969 L 24.023438 -28.777344 L 23.773438 -26.273438 L 23.648438 -16.140625 L 23.898438 -13.511719 L 23.773438 -6.253906 L 23.523438 -3.878906 L 25.148438 -1.125 L 28.777344 0.125 Z M 32.65625 0.25 "/></g></g></g><g fill="#f6cd26" fill-opacity="1"><g transform="translate(174.982867, 230.624985)"><g><path d="M 73.816406 0.25 L 78.570312 -0.125 L 80.949219 0.125 L 84.828125 0 L 88.332031 -0.625 L 88.707031 -3.628906 L 87.832031 -6.507812 L 85.953125 -11.136719 L 82.574219 -17.640625 L 80.824219 -22.269531 L 78.320312 -26.773438 L 73.566406 -38.160156 L 72.316406 -40.035156 L 71.066406 -42.414062 L 70.316406 -45.167969 L 69.1875 -47.042969 L 68.4375 -49.046875 L 65.808594 -53.675781 L 64.933594 -56.300781 L 56.675781 -73.691406 L 55.925781 -76.195312 L 54.550781 -78.445312 L 53.800781 -80.699219 L 51.421875 -85.078125 L 49.296875 -87.332031 L 45.167969 -88.582031 L 41.164062 -87.207031 L 38.910156 -85.078125 L 37.785156 -82.953125 L 36.910156 -80.449219 L 35.78125 -78.699219 L 30.777344 -67.1875 L 29.402344 -65.308594 L 28.777344 -62.808594 L 27.398438 -60.429688 L 26.648438 -58.179688 L 13.886719 -31.402344 L 13.136719 -28.652344 L 11.886719 -26.773438 L 11.011719 -24.273438 L 8.757812 -20.269531 L 6.882812 -15.265625 L 5.503906 -13.511719 L 4.878906 -11.261719 L 2.378906 -6.253906 L 1.625 -3.753906 L 2.253906 -0.625 L 4.753906 0.125 L 9.632812 -0.125 L 12.136719 0.125 L 19.144531 -0.125 L 22.019531 -1 L 24.398438 -3.253906 L 26.648438 -7.382812 L 29.027344 -9.757812 L 31.652344 -11.136719 L 34.03125 -10.761719 L 39.285156 -11.261719 L 41.539062 -10.886719 L 53.800781 -11.011719 L 56.050781 -10.761719 L 58.804688 -11.136719 L 61.554688 -9.757812 L 63.933594 -7.757812 L 65.058594 -5.378906 L 65.808594 -3.128906 L 68.3125 -1.25 L 71.191406 0 Z M 45.417969 -30.902344 L 42.914062 -31.402344 L 40.035156 -31.152344 L 38.035156 -32.03125 L 37.910156 -34.40625 L 43.789062 -47.917969 L 45.167969 -49.046875 L 46.917969 -48.042969 L 52.796875 -34.28125 L 52.296875 -32.03125 L 50.421875 -31.027344 Z M 45.417969 -30.902344 "/></g></g></g><g fill="#160080" fill-opacity="1"><g transform="translate(272.813458, 230.624985)"><g><path d="M 38.535156 0.375 L 42.289062 0.375 L 46.167969 -0.125 L 48.667969 -0.125 L 52.296875 -1.25 L 57.429688 -2.128906 L 63.308594 -4.628906 L 71.691406 -10.257812 L 77.820312 -18.140625 L 79.074219 -20.644531 L 80.574219 -22.644531 L 82.574219 -27.523438 L 83.203125 -29.902344 L 83.703125 -32.53125 L 84.453125 -34.65625 L 84.828125 -37.160156 L 84.828125 -39.785156 L 85.203125 -43.789062 L 85.078125 -47.417969 L 83.328125 -57.300781 L 81.699219 -62.058594 L 80.699219 -64.433594 L 76.445312 -71.066406 L 69.8125 -78.445312 L 63.433594 -82.699219 L 61.054688 -84.078125 L 58.554688 -84.578125 L 56.425781 -85.578125 L 53.800781 -86.203125 L 46.417969 -87.332031 L 17.890625 -87.582031 L 15.640625 -87.207031 L 13.136719 -87.332031 L 10.382812 -86.203125 L 9.257812 -83.578125 L 9.132812 -13.636719 L 9.382812 -11.261719 L 9.382812 -4.878906 L 10.636719 -1 L 13.136719 0.25 L 15.640625 0 L 30.902344 0.25 L 33.40625 -0.125 Z M 38.160156 -20.144531 L 35.78125 -20.394531 L 32.90625 -21.769531 L 31.90625 -24.148438 L 31.777344 -26.273438 L 31.90625 -31.402344 L 31.402344 -37.535156 L 31.90625 -43.789062 L 31.652344 -61.054688 L 31.90625 -63.183594 L 33.15625 -66.0625 L 37.160156 -66.9375 L 42.414062 -67.0625 L 46.042969 -66.6875 L 50.921875 -65.308594 L 53.175781 -64.183594 L 55.050781 -62.808594 L 56.925781 -61.054688 L 58.804688 -58.804688 L 60.054688 -56.675781 L 61.179688 -54.425781 L 63.183594 -43.414062 L 61.933594 -34.65625 L 59.804688 -30.027344 L 55.175781 -24.773438 L 50.921875 -22.019531 L 47.292969 -20.894531 L 41.914062 -20.269531 Z M 38.160156 -20.144531 "/></g></g></g><path fill="#111827" d="M 88.195312 166.1875 L 279.253906 166.1875 L 279.253906 222.1875 L 88.195312 222.1875 L 88.195312 166.1875 " fill-opacity="1" fill-rule="nonzero"/><g fill="#ff3131" fill-opacity="1"><g transform="translate(107.027194, 206.185563)"><g><path d="M 7.347656 -8.503906 L 11.023438 -8.503906 C 14.871094 -8.503906 18.300781 -11.339844 18.300781 -16.167969 C 18.300781 -20.683594 14.871094 -23.796875 11.023438 -23.796875 L 2.101562 -23.796875 L 2.101562 0 L 7.347656 0 Z M 10.148438 -19.667969 C 11.6875 -19.667969 13.296875 -18.335938 13.296875 -16.167969 C 13.296875 -13.894531 11.6875 -12.632812 10.148438 -12.632812 L 7.347656 -12.632812 L 7.347656 -19.667969 Z M 10.148438 -19.667969 "/></g></g></g><g fill="#ff3131" fill-opacity="1"><g transform="translate(135.477948, 206.185563)"><g><path d="M 15.1875 -23.796875 L 15.1875 -14.3125 L 7.347656 -14.3125 L 7.347656 -23.796875 L 2.101562 -23.796875 L 2.101562 0 L 7.347656 0 L 7.347656 -9.554688 L 15.1875 -9.554688 L 15.1875 0 L 20.785156 0 L 20.785156 -23.796875 Z M 15.1875 -23.796875 "/></g></g></g><g fill="#ff3131" fill-opacity="1"><g transform="translate(167.987784, 206.185563)"><g><path d="M 20.472656 -11.933594 C 20.472656 -8.257812 17.148438 -4.898438 13.472656 -4.898438 C 9.796875 -4.898438 6.472656 -8.257812 6.472656 -11.933594 C 6.472656 -15.609375 9.796875 -18.933594 13.472656 -18.933594 C 17.148438 -18.933594 20.472656 -15.609375 20.472656 -11.933594 Z M 25.722656 -11.898438 C 25.722656 -18.476562 20.050781 -24.148438 13.472656 -24.148438 C 6.894531 -24.148438 1.226562 -18.476562 1.226562 -11.898438 C 1.226562 -5.320312 6.894531 0.351562 13.472656 0.351562 C 20.050781 0.351562 25.722656 -5.320312 25.722656 -11.898438 Z M 25.722656 -11.898438 "/></g></g></g><g fill="#ff3131" fill-opacity="1"><g transform="translate(204.556702, 206.185563)"><g><path d="M 12.214844 -19.039062 L 19.003906 -19.039062 L 19.003906 -23.796875 L 0.175781 -23.796875 L 0.175781 -19.039062 L 6.964844 -19.039062 L 6.964844 0 L 12.214844 0 Z M 12.214844 -19.039062 "/></g></g></g><g fill="#ff3131" fill-opacity="1"><g transform="translate(233.357382, 206.185563)"><g><path d="M 20.472656 -11.933594 C 20.472656 -8.257812 17.148438 -4.898438 13.472656 -4.898438 C 9.796875 -4.898438 6.472656 -8.257812 6.472656 -11.933594 C 6.472656 -15.609375 9.796875 -18.933594 13.472656 -18.933594 C 17.148438 -18.933594 20.472656 -15.609375 20.472656 -11.933594 Z M 25.722656 -11.898438 C 25.722656 -18.476562 20.050781 -24.148438 13.472656 -24.148438 C 6.894531 -24.148438 1.226562 -18.476562 1.226562 -11.898438 C 1.226562 -5.320312 6.894531 0.351562 13.472656 0.351562 C 20.050781 0.351562 25.722656 -5.320312 25.722656 -11.898438 Z M 25.722656 -11.898438 "/></g></g></g></svg>